# xmcd CD database file
# Copyright (C) 1993-1996 Ti Kan
#
# Track frame offsets:
# 150
# 11845
# 23175
# 33377
# 44912
# 56645
# 69717
# 80460
# 90950
# 101352
#
# Disc length: 1497 seconds
# Revision: 0
# Processed by: cddbd v1.4b41PL1 Copyright (c) Steve Scherf et al.
# Submitted via: CDSpectrumPro v3.2.327
#
DISCID=7d05d70a
DTITLE=Patsy Cline - A Legendary Performer
DYEAR=1900
DGENRE=
TTITLE0=Walkin' After Midnight
TTITLE1=Just Out Of Reach
TTITLE2=Three Cigarettes In An Ashtray
TTITLE3=The Heart You Break
TTITLE4=I've Loved And Lost Again
TTITLE5=If I Could See The World
TTITLE6=I Can See An Angel
TTITLE7=Pick Me Up On Your Way Down
TTITLE8=Turn The Cards Slowly
TTITLE9=Don't Ever Leave Me Again
EXTD=
EXTT0=
EXTT1=
EXTT2=
EXTT3=
EXTT4=
EXTT5=
EXTT6=
EXTT7=
EXTT8=
EXTT9=
PLAYORDER=
